<svg width="512" height="512" viewBox="0 0 512 512" fill="none" xmlns="http://www.w3.org/2000/svg">
<path d="M461.546 256.5C461.546 370.328 369.27 462.604 255.441 462.604C141.613 462.604 49.337 370.328 49.337 256.5C49.337 142.672 141.613 50.3954 255.441 50.3954C369.27 50.3954 461.546 142.672 461.546 256.5Z" fill="#EDBE3D"/>
<path fill-rule="evenodd" clip-rule="evenodd" d="M255.441 67.2873C150.942 67.2873 66.2287 152.001 66.2287 256.5C66.2287 360.999 150.942 445.713 255.441 445.713C359.94 445.713 444.654 360.999 444.654 256.5C444.654 152.001 359.94 67.2873 255.441 67.2873ZM31.1893 256.5C31.1893 132.649 131.591 32.2479 255.441 32.2479C379.292 32.2479 479.693 132.649 479.693 256.5C479.693 380.351 379.292 480.752 255.441 480.752C131.591 480.752 31.1893 380.351 31.1893 256.5Z" fill="#C46E0D"/>
<path fill-rule="evenodd" clip-rule="evenodd" d="M122.333 361.672C228.873 361.672 315.242 275.303 315.242 168.763C315.242 130.062 303.845 94.0222 284.226 63.8176C275.027 49.6576 284.338 29.1311 300.854 32.6462C403.216 54.4327 480 145.358 480 254.217C480 379.329 378.577 480.752 253.465 480.752C178.002 480.752 111.157 443.853 69.9877 387.114C60.0636 373.436 75.0756 356.606 91.7641 359.263C101.72 360.848 111.931 361.672 122.333 361.672Z" fill="#3D6FED"/>
<mask id="mask0_1_8" style="mask-type:luminance" maskUnits="userSpaceOnUse" x="66" y="32" width="414" height="449">
<path fill-rule="evenodd" clip-rule="evenodd" d="M122.333 361.672C228.873 361.672 315.242 275.303 315.242 168.763C315.242 130.062 303.845 94.0222 284.226 63.8176C275.027 49.6576 284.338 29.1311 300.854 32.6462C403.216 54.4327 480 145.358 480 254.217C480 379.329 378.577 480.752 253.465 480.752C178.002 480.752 111.157 443.853 69.9877 387.114C60.0636 373.436 75.0756 356.606 91.7641 359.263C101.72 360.848 111.931 361.672 122.333 361.672Z" fill="white"/>
</mask>
<g mask="url(#mask0_1_8)">
<path d="M279.846 168.763C279.846 255.754 209.325 326.275 122.333 326.275V397.068C248.423 397.068 350.638 294.852 350.638 168.763H279.846ZM254.542 83.099C270.547 107.738 279.846 137.111 279.846 168.763H350.638C350.638 123.012 337.144 80.3064 313.909 44.5361L254.542 83.099ZM293.485 67.2668C379.842 85.6468 444.604 162.41 444.604 254.217H515.396C515.396 128.306 426.59 23.2185 308.223 -1.97446L293.485 67.2668ZM444.604 254.217C444.604 359.78 359.028 445.356 253.465 445.356V516.148C398.125 516.148 515.396 398.877 515.396 254.217H444.604ZM253.465 445.356C189.819 445.356 133.434 414.283 98.6368 366.327L41.3385 407.902C88.8798 473.423 166.184 516.148 253.465 516.148V445.356ZM122.333 326.275C113.801 326.275 105.452 325.6 97.3293 324.307L86.1987 394.218C97.9888 396.096 110.06 397.068 122.333 397.068V326.275ZM98.6368 366.327C100.947 369.511 102.552 374.205 102.143 379.398C101.767 384.17 99.8545 387.579 98.222 389.561C95.3049 393.104 90.9548 394.976 86.1987 394.218L97.3293 324.307C75.8847 320.893 55.6845 329.85 43.5702 344.565C30.6042 360.312 25.2792 385.768 41.3385 407.902L98.6368 366.327ZM313.909 44.5361C316.55 48.6029 316.596 53.3673 314.535 57.4776C313.381 59.7759 311.041 62.8999 306.84 65.1732C302.269 67.6465 297.335 68.0862 293.485 67.2668L308.223 -1.97446C281.501 -7.66173 260.402 7.50833 251.261 25.7299C242.713 42.7646 242.703 64.8722 254.542 83.099L313.909 44.5361Z" fill="#1348B9"/>
</g>
</svg>
