<svg width="512" height="512" viewBox="0 0 512 512" fill="none" xmlns="http://www.w3.org/2000/svg">
<mask id="path-1-inside-1_2_3" fill="white">
<path fill-rule="evenodd" clip-rule="evenodd" d="M107.744 377.271C228.142 377.271 325.744 279.669 325.744 159.271C325.744 115.536 312.865 74.8091 290.694 40.6759C280.299 24.6741 290.821 1.47779 309.485 5.45003C425.161 30.0703 511.932 132.822 511.932 255.84C511.932 397.225 397.317 511.84 255.932 511.84C170.654 511.84 95.1142 470.142 48.5903 406.023C37.3754 390.566 54.34 371.546 73.1991 374.549C84.4504 376.34 95.9886 377.271 107.744 377.271Z"/>
</mask>
<path fill-rule="evenodd" clip-rule="evenodd" d="M107.744 377.271C228.142 377.271 325.744 279.669 325.744 159.271C325.744 115.536 312.865 74.8091 290.694 40.6759C280.299 24.6741 290.821 1.47779 309.485 5.45003C425.161 30.0703 511.932 132.822 511.932 255.84C511.932 397.225 397.317 511.84 255.932 511.84C170.654 511.84 95.1142 470.142 48.5903 406.023C37.3754 390.566 54.34 371.546 73.1991 374.549C84.4504 376.34 95.9886 377.271 107.744 377.271Z" fill="#3D6FED"/>
<path d="M48.5903 406.023L16.2149 429.514L48.5903 406.023ZM73.1991 374.549L79.4883 335.046L73.1991 374.549ZM290.694 40.6759L257.149 62.4652L290.694 40.6759ZM285.744 159.271C285.744 257.577 206.051 337.271 107.744 337.271V417.271C250.234 417.271 365.744 301.76 365.744 159.271H285.744ZM257.149 62.4652C275.236 90.3088 285.744 123.502 285.744 159.271H365.744C365.744 107.57 350.495 59.3093 324.238 18.8865L257.149 62.4652ZM301.158 44.5737C398.747 65.3444 471.932 152.092 471.932 255.84H551.932C551.932 113.552 451.575 -5.2038 317.812 -33.6736L301.158 44.5737ZM471.932 255.84C471.932 375.133 375.225 471.84 255.932 471.84V551.84C419.408 551.84 551.932 419.316 551.932 255.84H471.932ZM255.932 471.84C184.008 471.84 120.289 436.726 80.9658 382.532L16.2149 429.514C69.9398 503.558 157.299 551.84 255.932 551.84V471.84ZM107.744 337.271C98.1026 337.271 88.6673 336.508 79.4883 335.046L66.9099 414.051C80.2335 416.173 93.8746 417.271 107.744 417.271V337.271ZM80.9658 382.532C83.577 386.13 85.3908 391.435 84.9285 397.303C84.5037 402.696 82.3419 406.548 80.4971 408.788C77.2005 412.792 72.2847 414.907 66.9099 414.051L79.4883 335.046C55.2544 331.188 32.4268 341.311 18.7368 357.939C4.08435 375.735 -1.93322 404.502 16.2149 429.514L80.9658 382.532ZM324.238 18.8865C327.223 23.4822 327.275 28.8663 324.945 33.5113C323.641 36.1085 320.997 39.6388 316.25 42.2078C311.084 45.0028 305.508 45.4997 301.158 44.5737L317.812 -33.6736C287.615 -40.1006 263.772 -22.9574 253.441 -2.36585C243.782 16.8846 243.77 41.8677 257.149 62.4652L324.238 18.8865Z" fill="#1348B9" mask="url(#path-1-inside-1_2_3)"/>
</svg>
